HIERARCHY
ROOT Hips
{
 OFFSET 0.000000 0.000000 0.000000
 CHANNELS 6 Xposition Yposition Zposition Yrotation Xrotation Zrotation
 JOINT Chest
 {
  OFFSET 0.000000 9.876139 0.000104
  CHANNELS 3 Yrotation Xrotation Zrotation
  JOINT Chest2
  {
   OFFSET 0.000000 10.876137 -0.000189
   CHANNELS 3 Yrotation Xrotation Zrotation
   JOINT Chest3
   {
    OFFSET 0.000000 9.827065 0.000000
    CHANNELS 3 Yrotation Xrotation Zrotation
    JOINT Chest4
    {
     OFFSET 0.000000 9.827065 0.000000
     CHANNELS 3 Yrotation Xrotation Zrotation
     JOINT Neck
     {
      OFFSET 0.000000 13.837564 0.000000
      CHANNELS 3 Yrotation Xrotation Zrotation
      JOINT Head
      {
       OFFSET 0.000000 9.147059 -0.000448
       CHANNELS 3 Yrotation Xrotation Zrotation
       End Site
       {
        OFFSET 0.000000 17.513050 -0.000234
       }
      }
     }
     JOINT RightCollar
     {
      OFFSET -3.007721 7.720841 0.000000
      CHANNELS 3 Yrotation Xrotation Zrotation
      JOINT RightShoulder
      {
       OFFSET -14.032560 0.000000 0.000000
       CHANNELS 3 Yrotation Xrotation Zrotation
       JOINT RightElbow
       {
        OFFSET -30.066962 0.000000 0.000000
        CHANNELS 3 Yrotation Xrotation Zrotation
        JOINT RightWrist
        {
         OFFSET -24.575761 0.000000 0.000000
         CHANNELS 3 Yrotation Xrotation Zrotation
         JOINT Prop1
         {
          OFFSET -3.508170 -1.002334 -2.004669
          CHANNELS 3 Yrotation Xrotation Zrotation
          End Site
          {
           OFFSET -75.170729 -33.091210 23.052389
          }
         }
         End Site
         {
          OFFSET -18.342718 0.000000 0.000000
         }
        }
       }
      }
     }
     JOINT LeftCollar
     {
      OFFSET 3.007721 7.720841 0.000000
      CHANNELS 3 Yrotation Xrotation Zrotation
      JOINT LeftShoulder
      {
       OFFSET 14.032560 0.000000 0.000000
       CHANNELS 3 Yrotation Xrotation Zrotation
       JOINT LeftElbow
       {
        OFFSET 30.066962 0.000000 0.000000
        CHANNELS 3 Yrotation Xrotation Zrotation
        JOINT LeftWrist
        {
         OFFSET 24.575761 0.000000 0.000000
         CHANNELS 3 Yrotation Xrotation Zrotation
         End Site
         {
          OFFSET 18.342718 0.000000 0.000000
         }
        }
       }
      }
     }
    }
   }
  }
 }
 JOINT RightHip
 {
  OFFSET -8.019680 -0.000509 -0.000052
  CHANNELS 3 Yrotation Xrotation Zrotation
  JOINT RightKnee
  {
   OFFSET 0.000000 -41.754945 0.000049
   CHANNELS 3 Yrotation Xrotation Zrotation
   JOINT RightAnkle
   {
    OFFSET 0.000000 -40.737371 0.000083
    CHANNELS 3 Yrotation Xrotation Zrotation
    JOINT RightToe
    {
     OFFSET 0.000000 -6.498123 14.692914
     CHANNELS 3 Yrotation Xrotation Zrotation
     End Site
     {
      OFFSET 0.000000 -1.503208 6.410318
     }
    }
   }
  }
 }
 JOINT LeftHip
 {
  OFFSET 8.019680 -0.000509 -0.000052
  CHANNELS 3 Yrotation Xrotation Zrotation
  JOINT LeftKnee
  {
   OFFSET 0.000000 -41.754945 0.000049
   CHANNELS 3 Yrotation Xrotation Zrotation
   JOINT LeftAnkle
   {
    OFFSET 0.000000 -40.737371 0.000083
    CHANNELS 3 Yrotation Xrotation Zrotation
    JOINT LeftToe
    {
     OFFSET 0.000000 -6.498123 14.692914
     CHANNELS 3 Yrotation Xrotation Zrotation
     End Site
     {
      OFFSET 0.000000 -1.503208 6.410318
     }
    }
   }
  }
 }
}
MOTION
Frames: 7
Frame Time: 0.016667
-56.363303 80.275552 138.911425 -133.481876 5.695398 7.297123 -4.410248 6.315305 -0.622057 -2.192422 2.662317 -0.741192 -2.192422 2.662317 -0.741192 -1.640793 1.999430 -0.546245 -14.518288 13.137530 5.730366 -29.568546 -8.862417 16.313984 5.453159 3.723469 9.121292 -31.963763 -64.888273 76.572310 27.779297 16.239572 -11.760508 -5.915578 2.423883 -20.596278 -23.857233 -3.682764 -86.021231 7.726073 -6.566906 -8.232112 34.516291 -13.320514 -61.042950 -42.738562 4.979503 -2.745220 -8.972185 -4.360889 9.286658 -16.584827 -51.491594 -12.993585 -24.650275 42.087042 -19.920855 9.493202 1.017115 -3.563704 1.052331 0.000195 1.436206 17.352808 -8.704469 23.867146 -13.237669 30.443789 -14.127310 -11.253463 -29.224635 8.439448 -0.705748 -0.393065 -8.651000
-56.302240 80.105410 139.510123 -132.322549 5.621580 7.421177 -5.116574 5.934178 -0.645543 -2.318187 2.745900 -0.739844 -2.318187 2.745900 -0.739844 -1.734984 2.062269 -0.544364 -14.541237 13.120664 5.811114 -29.644003 -8.861928 16.475217 5.383890 4.143608 8.873287 -32.361037 -65.023865 77.274930 27.715372 16.162396 -12.016916 -5.998103 2.301452 -20.514093 -23.920494 -3.615999 -85.992166 7.778760 -6.781075 -8.341492 34.253476 -13.082418 -61.176973 -42.771210 4.910350 -2.679351 -8.909629 -4.261809 9.199335 -18.136126 -52.213780 -12.850392 -24.353974 42.372881 -20.106601 9.888413 1.680387 -3.570181 0.776925 -0.273517 1.316193 16.211704 -7.637150 24.207042 -15.382822 27.823405 -14.708869 -8.833072 -30.261668 8.693097 -0.423026 0.927861 -7.516215
-56.350082 79.877610 140.334926 -130.797213 6.044706 7.947960 -6.136029 5.262475 -0.933716 -2.447341 2.737584 -0.744214 -2.447341 2.737584 -0.744214 -1.831824 2.056210 -0.547095 -14.578973 13.095332 5.883927 -29.746365 -8.874898 16.629241 5.396868 3.943212 8.874015 -32.134772 -64.958136 76.917605 27.611440 16.151081 -12.107779 -6.051383 2.265334 -20.387338 -24.032030 -3.632034 -86.028160 7.703257 -6.717552 -8.432649 34.259085 -13.030849 -61.520152 -42.907222 5.194930 -2.693849 -8.925220 -4.177338 9.157992 -19.817900 -53.675329 -13.283014 -24.716311 42.476249 -20.649439 11.222966 2.303944 -3.318614 0.293450 -0.371353 1.073802 15.203052 -7.277465 23.873896 -15.036460 24.776397 -14.342728 -7.707684 -30.595612 8.470922 -0.318139 2.582489 -6.289912
-56.699860 79.600562 141.242560 -130.012626 5.761415 8.605832 -6.663433 5.331369 -1.497116 -2.524230 2.722762 -0.755046 -2.524230 2.722762 -0.755046 -1.889454 2.045234 -0.554936 -14.636118 13.118778 5.924489 -29.860368 -8.804289 16.715681 5.424492 4.248165 8.788499 -33.108667 -65.194626 77.616168 27.736032 16.130672 -11.824058 -6.021891 2.264646 -20.243459 -24.171250 -3.583830 -86.011960 7.515138 -6.357829 -8.481809 34.312633 -13.004887 -62.040935 -43.183732 5.664392 -2.603187 -8.923451 -4.143056 9.109427 -20.196036 -54.427801 -14.722219 -25.438396 42.400813 -21.315047 12.794312 2.756939 -3.001831 -0.117300 -0.241193 0.844641 15.570984 -6.717333 23.404418 -10.525417 23.484978 -12.906002 -11.905409 -30.115579 8.389497 -0.658185 3.024146 -4.660857
-57.175703 79.344937 142.197741 -129.398805 5.122219 9.198914 -7.115181 5.583381 -2.029831 -2.578901 2.762534 -0.775155 -2.578901 2.762534 -0.775155 -1.930299 2.075218 -0.569600 -14.702653 13.200521 5.916847 -29.959264 -8.640778 16.698951 5.532517 5.406446 8.633396 -36.056820 -66.052172 80.358235 28.087579 16.094981 -11.274699 -5.972232 2.459777 -20.178306 -24.274198 -3.418861 -85.923540 7.349613 -5.913143 -8.486786 34.121367 -12.895946 -62.707226 -43.389255 6.274153 -2.286642 -8.862090 -4.150329 9.030540 -20.084853 -54.753052 -16.502513 -25.972093 42.307520 -21.713953 13.665089 3.322712 -2.914486 -0.060457 -0.189272 0.809890 16.383652 -6.140547 22.849686 -6.095999 22.776280 -11.865951 -17.868044 -28.882919 7.207174 -1.155087 2.555942 -1.834826
-57.752743 79.080609 143.030930 -129.899429 4.172908 9.008287 -6.701057 6.469482 -1.973881 -2.553851 2.761514 -0.763030 -2.553851 2.761514 -0.763030 -1.911571 2.074370 -0.560625 -14.764849 13.313235 5.853014 -30.022357 -8.440003 16.568217 5.600457 6.410948 8.523897 -38.915314 -66.863038 83.123042 28.344337 16.137595 -10.791295 -5.989804 2.707191 -20.166275 -24.280791 -3.273084 -85.880715 7.353129 -5.951188 -8.490077 33.622828 -12.398659 -63.210754 -43.330133 6.994962 -1.841267 -8.752918 -4.120111 8.923728 -19.438210 -54.343334 -17.505633 -26.347373 42.166384 -22.046417 14.556922 4.243561 -2.694343 -0.084180 -0.451265 0.743619 18.718889 -6.456249 22.800548 -4.322712 24.341725 -10.097776 -23.694564 -29.486342 3.725290 -0.958559 2.107737 2.100266
-58.305954 78.825851 143.833199 -129.937267 3.635108 8.614222 -6.942473 7.031863 -1.740682 -2.425790 2.751033 -0.700064 -2.425790 2.751033 -0.700064 -1.815842 2.066094 -0.514030 -14.813579 13.391246 5.809892 -30.077061 -8.299152 16.481581 5.392622 5.689752 8.594307 -38.736419 -66.676800 82.705728 28.335958 16.429367 -10.413705 -6.024916 2.688673 -20.148141 -24.246775 -3.186644 -85.957764 7.463244 -6.512025 -8.477928 33.104986 -11.620657 -63.586301 -43.087080 7.823775 -1.463689 -8.654418 -3.937031 8.841159 -19.241195 -54.157911 -18.081179 -26.749002 42.019461 -22.399422 15.181466 5.224776 -2.356347 -0.082219 -0.825825 0.702340 20.307980 -6.780167 22.230593 -4.801606 24.362236 -7.753101 -24.865934 -30.409064 -0.748967 -0.000630 2.512295 4.656760
